<?xml version="1.0" standalone="no"?>
<!DOCTYPE svg PUBLIC "-//W3C//DTD SVG 20010904//EN"
 "http://www.w3.org/TR/2001/REC-SVG-20010904/DTD/svg10.dtd">
<svg version="1.0" xmlns="http://www.w3.org/2000/svg"
 width="51.000000pt" height="73.000000pt" viewBox="0 0 51.000000 73.000000"
 preserveAspectRatio="xMidYMid meet">

<g transform="translate(0.000000,73.000000) scale(0.100000,-0.100000)"
fill="#ffffff" stroke="none">
<path d="M196 719 c-57 -9 -121 -50 -153 -98 -52 -76 -39 -170 31 -238 34 -33
62 -47 140 -72 169 -54 199 -77 198 -152 -1 -79 -53 -132 -142 -144 -62 -9
-122 8 -167 48 -36 32 -83 116 -83 150 0 9 -4 17 -10 17 -6 0 -10 -43 -10
-110 0 -61 4 -110 9 -110 5 0 11 6 13 12 4 10 17 10 64 -1 98 -22 196 -25 251
-7 115 38 183 142 167 255 -5 37 -15 55 -53 91 -40 39 -63 51 -174 89 -145 49
-187 80 -187 134 0 78 80 134 179 125 79 -8 108 -36 163 -163 12 -28 13 -23
16 64 1 51 0 96 -2 99 -3 3 -12 -1 -20 -7 -12 -10 -25 -10 -63 2 -68 22 -111
26 -167 16z"/>
</g>
</svg>
