<?xml version="1.0" standalone="no"?>
<!DOCTYPE svg PUBLIC "-//W3C//DTD SVG 20010904//EN"
 "http://www.w3.org/TR/2001/REC-SVG-20010904/DTD/svg10.dtd">
<svg version="1.0" xmlns="http://www.w3.org/2000/svg"
 width="51.000000pt" height="73.000000pt" viewBox="0 0 51.000000 73.000000"
 preserveAspectRatio="xMidYMid meet">

<g transform="translate(0.000000,73.000000) scale(0.100000,-0.100000)"
fill="#ffffff" stroke="none">
<path d="M205 721 c-151 -26 -232 -166 -169 -293 26 -50 84 -87 197 -123 129
-41 162 -63 178 -115 10 -34 9 -44 -12 -87 -32 -64 -73 -87 -159 -87 -57 -1
-73 3 -109 27 -47 31 -98 104 -107 154 -13 67 -24 30 -24 -77 0 -61 4 -110 9
-110 5 0 11 6 13 12 4 10 23 9 89 -5 145 -30 229 -20 304 38 87 65 117 173 75
260 -29 59 -70 86 -196 129 -122 41 -156 58 -183 92 -63 80 29 182 154 172 74
-6 115 -39 150 -122 15 -36 32 -63 36 -60 5 3 9 45 9 95 0 70 -3 89 -14 89 -8
0 -16 -6 -18 -12 -4 -10 -17 -9 -59 4 -73 22 -116 27 -164 19z"/>
</g>
</svg>
